<svg xmlns="http://www.w3.org/2000/svg" version="1.1" xmlns:xlink="http://www.w3.org/1999/xlink" width="260" height="276.2556651671235"><g id="SvgjsG1001" class="node" x="-2658" y="4505" transform="scale(0.5)">
<title x="-2658" y="4505">addresses</title>
<ellipse fill="none" stroke="black" stroke-width="0" cx="2918.04" cy="-4228.8" rx="362.08" ry="384.83" x="-2658" y="4505"></ellipse>
<rect width="508" height="60" x="6" y="6" fill="#1d71b8" stroke="transparent" points="2664.04,-4438.8 2664.04,-4498.8 3172.04,-4498.8 3172.04,-4438.8 2664.04,-4438.8"></rect>
<rect width="508" height="60" x="6" y="6" fill="none" stroke="#29235c" points="2664.04,-4438.8 2664.04,-4498.8 3172.04,-4498.8 3172.04,-4438.8 2664.04,-4438.8"></rect>
<text text-anchor="start" x="124" y="45" font-family="Helvetica,sans-Serif" font-weight="bold" font-size="32.00" fill="#ffffff">       addresses       </text>
<rect width="508" height="60" x="6" y="66" fill="#e7e2dd" stroke="transparent" points="2664.04,-4378.8 2664.04,-4438.8 3172.04,-4438.8 3172.04,-4378.8 2664.04,-4378.8"></rect>
<rect width="508" height="60" x="6" y="66" fill="none" stroke="#29235c" points="2664.04,-4378.8 2664.04,-4438.8 3172.04,-4438.8 3172.04,-4378.8 2664.04,-4378.8"></rect>
<text text-anchor="start" x="17" y="105" font-family="Helvetica,sans-Serif" font-weight="bold" font-size="32.00" fill="#29235c">id</text>
<text text-anchor="start" x="42" y="105" font-family="Helvetica,sans-Serif" font-size="32.00" fill="#29235c">    </text>
<text text-anchor="start" x="387" y="105" font-family="Helvetica,sans-Serif" font-style="italic" font-size="32.00" fill="#29235c">serial</text>
<text text-anchor="start" x="464" y="105" font-family="Helvetica,sans-Serif" font-size="32.00" fill="#29235c"> </text>
<text text-anchor="start" x="473" y="105" font-family="Helvetica,sans-Serif" font-weight="bold" font-size="32.00" fill="#29235c">(!)</text>
<rect width="508" height="60" x="6" y="126" fill="#e7e2dd" stroke="transparent" points="2664.04,-4318.8 2664.04,-4378.8 3172.04,-4378.8 3172.04,-4318.8 2664.04,-4318.8"></rect>
<rect width="508" height="60" x="6" y="126" fill="none" stroke="#29235c" points="2664.04,-4318.8 2664.04,-4378.8 3172.04,-4378.8 3172.04,-4318.8 2664.04,-4318.8"></rect>
<text text-anchor="start" x="17" y="166" font-family="Helvetica,sans-Serif" font-size="32.00" fill="#29235c">street_name    </text>
<text text-anchor="start" x="322" y="165" font-family="Helvetica,sans-Serif" font-style="italic" font-size="32.00" fill="#29235c">varchar(255)</text>
<rect width="508" height="60" x="6" y="186" fill="#e7e2dd" stroke="transparent" points="2664.04,-4258.8 2664.04,-4318.8 3172.04,-4318.8 3172.04,-4258.8 2664.04,-4258.8"></rect>
<rect width="508" height="60" x="6" y="186" fill="none" stroke="#29235c" points="2664.04,-4258.8 2664.04,-4318.8 3172.04,-4318.8 3172.04,-4258.8 2664.04,-4258.8"></rect>
<text text-anchor="start" x="17" y="226" font-family="Helvetica,sans-Serif" font-size="32.00" fill="#29235c">street_number    </text>
<text text-anchor="start" x="322" y="225" font-family="Helvetica,sans-Serif" font-style="italic" font-size="32.00" fill="#29235c">varchar(255)</text>
<rect width="508" height="60" x="6" y="246" fill="#e7e2dd" stroke="transparent" points="2664.04,-4198.8 2664.04,-4258.8 3172.04,-4258.8 3172.04,-4198.8 2664.04,-4198.8"></rect>
<rect width="508" height="60" x="6" y="246" fill="none" stroke="#29235c" points="2664.04,-4198.8 2664.04,-4258.8 3172.04,-4258.8 3172.04,-4198.8 2664.04,-4198.8"></rect>
<text text-anchor="start" x="17" y="286" font-family="Helvetica,sans-Serif" font-size="32.00" fill="#29235c">apartment_number    </text>
<text text-anchor="start" x="322" y="285" font-family="Helvetica,sans-Serif" font-style="italic" font-size="32.00" fill="#29235c">varchar(255)</text>
<rect width="508" height="60" x="6" y="306" fill="#e7e2dd" stroke="transparent" points="2664.04,-4138.8 2664.04,-4198.8 3172.04,-4198.8 3172.04,-4138.8 2664.04,-4138.8"></rect>
<rect width="508" height="60" x="6" y="306" fill="none" stroke="#29235c" points="2664.04,-4138.8 2664.04,-4198.8 3172.04,-4198.8 3172.04,-4138.8 2664.04,-4138.8"></rect>
<text text-anchor="start" x="17" y="346" font-family="Helvetica,sans-Serif" font-size="32.00" fill="#29235c">second_line    </text>
<text text-anchor="start" x="322" y="345" font-family="Helvetica,sans-Serif" font-style="italic" font-size="32.00" fill="#29235c">varchar(255)</text>
<rect width="508" height="60" x="6" y="366" fill="#e7e2dd" stroke="transparent" points="2664.04,-4078.8 2664.04,-4138.8 3172.04,-4138.8 3172.04,-4078.8 2664.04,-4078.8"></rect>
<rect width="508" height="60" x="6" y="366" fill="none" stroke="#29235c" points="2664.04,-4078.8 2664.04,-4138.8 3172.04,-4138.8 3172.04,-4078.8 2664.04,-4078.8"></rect>
<text text-anchor="start" x="17" y="406" font-family="Helvetica,sans-Serif" font-size="32.00" fill="#29235c">post_code    </text>
<text text-anchor="start" x="322" y="405" font-family="Helvetica,sans-Serif" font-style="italic" font-size="32.00" fill="#29235c">varchar(255)</text>
<rect width="508" height="60" x="6" y="426" fill="#e7e2dd" stroke="transparent" points="2664.04,-4018.8 2664.04,-4078.8 3172.04,-4078.8 3172.04,-4018.8 2664.04,-4018.8"></rect>
<rect width="508" height="60" x="6" y="426" fill="none" stroke="#29235c" points="2664.04,-4018.8 2664.04,-4078.8 3172.04,-4078.8 3172.04,-4018.8 2664.04,-4018.8"></rect>
<text text-anchor="start" x="17" y="466" font-family="Helvetica,sans-Serif" font-size="32.00" fill="#29235c">city    </text>
<text text-anchor="start" x="322" y="465" font-family="Helvetica,sans-Serif" font-style="italic" font-size="32.00" fill="#29235c">varchar(255)</text>
<rect width="508" height="60" x="6" y="486" fill="#e7e2dd" stroke="transparent" points="2664.04,-3958.8 2664.04,-4018.8 3172.04,-4018.8 3172.04,-3958.8 2664.04,-3958.8"></rect>
<rect width="508" height="60" x="6" y="486" fill="none" stroke="#29235c" points="2664.04,-3958.8 2664.04,-4018.8 3172.04,-4018.8 3172.04,-3958.8 2664.04,-3958.8"></rect>
<text text-anchor="start" x="17" y="526" font-family="Helvetica,sans-Serif" font-size="32.00" fill="#29235c">province    </text>
<text text-anchor="start" x="322" y="525" font-family="Helvetica,sans-Serif" font-style="italic" font-size="32.00" fill="#29235c">varchar(255)</text>
<rect width="510" height="542" x="5" y="5" fill="none" stroke="#29235c" stroke-width="2" points="2663.04,-3957.8 2663.04,-4499.8 3173.04,-4499.8 3173.04,-3957.8 2663.04,-3957.8"></rect>
</g></svg>