<svg xmlns="http://www.w3.org/2000/svg" version="1.1" xmlns:xlink="http://www.w3.org/1999/xlink" width="273.5" height="94.78831148743296"><g id="SvgjsG1005" class="node" x="-157" y="6218" transform="scale(0.5)">
<title x="-157" y="6218">email_credentials_to_users</title>
<ellipse fill="none" stroke="black" stroke-width="0" cx="430.63" cy="-6122.8" rx="381.26" ry="130.22" x="-157" y="6218"></ellipse>
<rect width="535" height="60" x="7" y="5" fill="#1d71b8" stroke="transparent" points="163.63,-6152.8 163.63,-6212.8 698.63,-6212.8 698.63,-6152.8 163.63,-6152.8"></rect>
<rect width="535" height="60" x="7" y="5" fill="none" stroke="#29235c" points="163.63,-6152.8 163.63,-6212.8 698.63,-6212.8 698.63,-6152.8 163.63,-6152.8"></rect>
<text text-anchor="start" x="17" y="44" font-family="Helvetica,sans-Serif" font-weight="bold" font-size="32.00" fill="#ffffff">       email_credentials_to_users       </text>
<rect width="535" height="60" x="7" y="65" fill="#e7e2dd" stroke="transparent" points="163.63,-6092.8 163.63,-6152.8 698.63,-6152.8 698.63,-6092.8 163.63,-6092.8"></rect>
<rect width="535" height="60" x="7" y="65" fill="none" stroke="#29235c" points="163.63,-6092.8 163.63,-6152.8 698.63,-6152.8 698.63,-6092.8 163.63,-6092.8"></rect>
<text text-anchor="start" x="18" y="104" font-family="Helvetica,sans-Serif" font-weight="bold" font-size="32.00" fill="#29235c">email_credentials_id</text>
<text text-anchor="start" x="309" y="104" font-family="Helvetica,sans-Serif" font-size="32.00" fill="#29235c">    </text>
<text text-anchor="start" x="394" y="104" font-family="Helvetica,sans-Serif" font-style="italic" font-size="32.00" fill="#29235c">integer</text>
<text text-anchor="start" x="491" y="104" font-family="Helvetica,sans-Serif" font-size="32.00" fill="#29235c"> </text>
<text text-anchor="start" x="500" y="104" font-family="Helvetica,sans-Serif" font-weight="bold" font-size="32.00" fill="#29235c">(!)</text>
<rect width="535" height="60" x="7" y="125" fill="#e7e2dd" stroke="transparent" points="163.63,-6032.8 163.63,-6092.8 698.63,-6092.8 698.63,-6032.8 163.63,-6032.8"></rect>
<rect width="535" height="60" x="7" y="125" fill="none" stroke="#29235c" points="163.63,-6032.8 163.63,-6092.8 698.63,-6092.8 698.63,-6032.8 163.63,-6032.8"></rect>
<text text-anchor="start" x="18" y="164" font-family="Helvetica,sans-Serif" font-weight="bold" font-size="32.00" fill="#29235c">userId</text>
<text text-anchor="start" x="106" y="164" font-family="Helvetica,sans-Serif" font-size="32.00" fill="#29235c">    </text>
<text text-anchor="start" x="310" y="164" font-family="Helvetica,sans-Serif" font-style="italic" font-size="32.00" fill="#29235c">varchar(255)</text>
<text text-anchor="start" x="491" y="164" font-family="Helvetica,sans-Serif" font-size="32.00" fill="#29235c"> </text>
<text text-anchor="start" x="500" y="164" font-family="Helvetica,sans-Serif" font-weight="bold" font-size="32.00" fill="#29235c">(!)</text>
<rect width="537" height="182" x="5" y="4" fill="none" stroke="#29235c" stroke-width="2" points="162.13,-6031.8 162.13,-6213.8 699.13,-6213.8 699.13,-6031.8 162.13,-6031.8"></rect>
</g></svg>