<svg xmlns="http://www.w3.org/2000/svg" version="1.1" xmlns:xlink="http://www.w3.org/1999/xlink" width="229.99999999999994" height="367.2547229220552"><g id="SvgjsG1004" class="node" x="-1008" y="6935" transform="scale(0.5)">
<title x="-1008" y="6935">email_credentials</title>
<ellipse fill="none" stroke="black" stroke-width="0" cx="1238.08" cy="-6567.8" rx="319.72" ry="511.89" x="-1008" y="6935"></ellipse>
<rect width="447.9999999999999" height="60" x="6" y="7" fill="#1d71b8" stroke="transparent" points="1014.08,-6867.8 1014.08,-6927.8 1462.08,-6927.8 1462.08,-6867.8 1014.08,-6867.8"></rect>
<rect width="447.9999999999999" height="60" x="6" y="7" fill="none" stroke="#29235c" points="1014.08,-6867.8 1014.08,-6927.8 1462.08,-6927.8 1462.08,-6867.8 1014.08,-6867.8"></rect>
<text text-anchor="start" x="43" y="46" font-family="Helvetica,sans-Serif" font-weight="bold" font-size="32.00" fill="#ffffff">       email_credentials       </text>
<rect width="447.9999999999999" height="60" x="6" y="67" fill="#e7e2dd" stroke="transparent" points="1014.08,-6807.8 1014.08,-6867.8 1462.08,-6867.8 1462.08,-6807.8 1014.08,-6807.8"></rect>
<rect width="447.9999999999999" height="60" x="6" y="67" fill="none" stroke="#29235c" points="1014.08,-6807.8 1014.08,-6867.8 1462.08,-6867.8 1462.08,-6807.8 1014.08,-6807.8"></rect>
<text text-anchor="start" x="17" y="106" font-family="Helvetica,sans-Serif" font-weight="bold" font-size="32.00" fill="#29235c">id</text>
<text text-anchor="start" x="42" y="106" font-family="Helvetica,sans-Serif" font-size="32.00" fill="#29235c">    </text>
<text text-anchor="start" x="327" y="106" font-family="Helvetica,sans-Serif" font-style="italic" font-size="32.00" fill="#29235c">serial</text>
<text text-anchor="start" x="404" y="106" font-family="Helvetica,sans-Serif" font-size="32.00" fill="#29235c"> </text>
<text text-anchor="start" x="413" y="106" font-family="Helvetica,sans-Serif" font-weight="bold" font-size="32.00" fill="#29235c">(!)</text>
<rect width="447.9999999999999" height="60" x="6" y="127" fill="#e7e2dd" stroke="transparent" points="1014.08,-6747.8 1014.08,-6807.8 1462.08,-6807.8 1462.08,-6747.8 1014.08,-6747.8"></rect>
<rect width="447.9999999999999" height="60" x="6" y="127" fill="none" stroke="#29235c" points="1014.08,-6747.8 1014.08,-6807.8 1462.08,-6807.8 1462.08,-6747.8 1014.08,-6747.8"></rect>
<text text-anchor="start" x="17" y="167" font-family="Helvetica,sans-Serif" font-size="32.00" fill="#29235c">host    </text>
<text text-anchor="start" x="262" y="166" font-family="Helvetica,sans-Serif" font-style="italic" font-size="32.00" fill="#29235c">varchar(255)</text>
<rect width="447.9999999999999" height="60" x="6" y="187" fill="#e7e2dd" stroke="transparent" points="1014.08,-6687.8 1014.08,-6747.8 1462.08,-6747.8 1462.08,-6687.8 1014.08,-6687.8"></rect>
<rect width="447.9999999999999" height="60" x="6" y="187" fill="none" stroke="#29235c" points="1014.08,-6687.8 1014.08,-6747.8 1462.08,-6747.8 1462.08,-6687.8 1014.08,-6687.8"></rect>
<text text-anchor="start" x="17" y="227" font-family="Helvetica,sans-Serif" font-size="32.00" fill="#29235c">port    </text>
<text text-anchor="start" x="306" y="226" font-family="Helvetica,sans-Serif" font-style="italic" font-size="32.00" fill="#29235c">integer</text>
<text text-anchor="start" x="404" y="226" font-family="Helvetica,sans-Serif" font-size="32.00" fill="#29235c"> </text>
<text text-anchor="start" x="413" y="226" font-family="Helvetica,sans-Serif" font-weight="bold" font-size="32.00" fill="#29235c">(!)</text>
<rect width="447.9999999999999" height="60" x="6" y="247" fill="#e7e2dd" stroke="transparent" points="1014.08,-6627.8 1014.08,-6687.8 1462.08,-6687.8 1462.08,-6627.8 1014.08,-6627.8"></rect>
<rect width="447.9999999999999" height="60" x="6" y="247" fill="none" stroke="#29235c" points="1014.08,-6627.8 1014.08,-6687.8 1462.08,-6687.8 1462.08,-6627.8 1014.08,-6627.8"></rect>
<text text-anchor="start" x="17" y="287" font-family="Helvetica,sans-Serif" font-size="32.00" fill="#29235c">user    </text>
<text text-anchor="start" x="262" y="286" font-family="Helvetica,sans-Serif" font-style="italic" font-size="32.00" fill="#29235c">varchar(255)</text>
<rect width="447.9999999999999" height="60" x="6" y="307" fill="#e7e2dd" stroke="transparent" points="1014.08,-6567.8 1014.08,-6627.8 1462.08,-6627.8 1462.08,-6567.8 1014.08,-6567.8"></rect>
<rect width="447.9999999999999" height="60" x="6" y="307" fill="none" stroke="#29235c" points="1014.08,-6567.8 1014.08,-6627.8 1462.08,-6627.8 1462.08,-6567.8 1014.08,-6567.8"></rect>
<text text-anchor="start" x="17" y="347" font-family="Helvetica,sans-Serif" font-size="32.00" fill="#29235c">protocol    </text>
<text text-anchor="start" x="262" y="346" font-family="Helvetica,sans-Serif" font-style="italic" font-size="32.00" fill="#29235c">varchar(255)</text>
<rect width="447.9999999999999" height="60" x="6" y="367" fill="#e7e2dd" stroke="transparent" points="1014.08,-6507.8 1014.08,-6567.8 1462.08,-6567.8 1462.08,-6507.8 1014.08,-6507.8"></rect>
<rect width="447.9999999999999" height="60" x="6" y="367" fill="none" stroke="#29235c" points="1014.08,-6507.8 1014.08,-6567.8 1462.08,-6567.8 1462.08,-6507.8 1014.08,-6507.8"></rect>
<text text-anchor="start" x="17" y="407" font-family="Helvetica,sans-Serif" font-size="32.00" fill="#29235c">password    </text>
<text text-anchor="start" x="262" y="406" font-family="Helvetica,sans-Serif" font-style="italic" font-size="32.00" fill="#29235c">varchar(255)</text>
<rect width="447.9999999999999" height="60" x="6" y="427" fill="#e7e2dd" stroke="transparent" points="1014.08,-6447.8 1014.08,-6507.8 1462.08,-6507.8 1462.08,-6447.8 1014.08,-6447.8"></rect>
<rect width="447.9999999999999" height="60" x="6" y="427" fill="none" stroke="#29235c" points="1014.08,-6447.8 1014.08,-6507.8 1462.08,-6507.8 1462.08,-6447.8 1014.08,-6447.8"></rect>
<text text-anchor="start" x="17" y="467" font-family="Helvetica,sans-Serif" font-size="32.00" fill="#29235c">boolean    </text>
<text text-anchor="start" x="329" y="466" font-family="Helvetica,sans-Serif" font-style="italic" font-size="32.00" fill="#29235c">boolean</text>
<rect width="447.9999999999999" height="60" x="6" y="487" fill="#e7e2dd" stroke="transparent" points="1014.08,-6387.8 1014.08,-6447.8 1462.08,-6447.8 1462.08,-6387.8 1014.08,-6387.8"></rect>
<rect width="447.9999999999999" height="60" x="6" y="487" fill="none" stroke="#29235c" points="1014.08,-6387.8 1014.08,-6447.8 1462.08,-6447.8 1462.08,-6387.8 1014.08,-6387.8"></rect>
<text text-anchor="start" x="17" y="527" font-family="Helvetica,sans-Serif" font-size="32.00" fill="#29235c">updated_at    </text>
<text text-anchor="start" x="256" y="526" font-family="Helvetica,sans-Serif" font-style="italic" font-size="32.00" fill="#29235c">timestamp</text>
<text text-anchor="start" x="404" y="526" font-family="Helvetica,sans-Serif" font-size="32.00" fill="#29235c"> </text>
<text text-anchor="start" x="413" y="526" font-family="Helvetica,sans-Serif" font-weight="bold" font-size="32.00" fill="#29235c">(!)</text>
<rect width="447.9999999999999" height="60" x="6" y="547" fill="#e7e2dd" stroke="transparent" points="1014.08,-6327.8 1014.08,-6387.8 1462.08,-6387.8 1462.08,-6327.8 1014.08,-6327.8"></rect>
<rect width="447.9999999999999" height="60" x="6" y="547" fill="none" stroke="#29235c" points="1014.08,-6327.8 1014.08,-6387.8 1462.08,-6387.8 1462.08,-6327.8 1014.08,-6327.8"></rect>
<text text-anchor="start" x="17" y="587" font-family="Helvetica,sans-Serif" font-size="32.00" fill="#29235c">created_at    </text>
<text text-anchor="start" x="256" y="586" font-family="Helvetica,sans-Serif" font-style="italic" font-size="32.00" fill="#29235c">timestamp</text>
<text text-anchor="start" x="404" y="586" font-family="Helvetica,sans-Serif" font-size="32.00" fill="#29235c"> </text>
<text text-anchor="start" x="413" y="586" font-family="Helvetica,sans-Serif" font-weight="bold" font-size="32.00" fill="#29235c">(!)</text>
<rect width="447.9999999999999" height="60" x="6" y="607" fill="#e7e2dd" stroke="transparent" points="1014.08,-6267.8 1014.08,-6327.8 1462.08,-6327.8 1462.08,-6267.8 1014.08,-6267.8"></rect>
<rect width="447.9999999999999" height="60" x="6" y="607" fill="none" stroke="#29235c" points="1014.08,-6267.8 1014.08,-6327.8 1462.08,-6327.8 1462.08,-6267.8 1014.08,-6267.8"></rect>
<text text-anchor="start" x="17" y="647" font-family="Helvetica,sans-Serif" font-size="32.00" fill="#29235c">created_by_id    </text>
<text text-anchor="start" x="262" y="646" font-family="Helvetica,sans-Serif" font-style="italic" font-size="32.00" fill="#29235c">varchar(255)</text>
<rect width="447.9999999999999" height="60" x="6" y="667" fill="#e7e2dd" stroke="transparent" points="1014.08,-6207.8 1014.08,-6267.8 1462.08,-6267.8 1462.08,-6207.8 1014.08,-6207.8"></rect>
<rect width="447.9999999999999" height="60" x="6" y="667" fill="none" stroke="#29235c" points="1014.08,-6207.8 1014.08,-6267.8 1462.08,-6267.8 1462.08,-6207.8 1014.08,-6207.8"></rect>
<text text-anchor="start" x="17" y="707" font-family="Helvetica,sans-Serif" font-size="32.00" fill="#29235c">updated_by_id    </text>
<text text-anchor="start" x="262" y="706" font-family="Helvetica,sans-Serif" font-style="italic" font-size="32.00" fill="#29235c">varchar(255)</text>
<rect width="449.9999999999999" height="722" x="5" y="6" fill="none" stroke="#29235c" stroke-width="2" points="1013.08,-6206.8 1013.08,-6928.8 1463.08,-6928.8 1463.08,-6206.8 1013.08,-6206.8"></rect>
</g></svg>