<svg xmlns="http://www.w3.org/2000/svg" version="1.1" xmlns:xlink="http://www.w3.org/1999/xlink" width="517" height="189.55115038571412"><g id="SvgjsG1009" class="node" x="-172" y="763">
<title x="-172" y="763">email_messages_to_files</title>
<ellipse fill="none" stroke="black" stroke-width="0" cx="430.63" cy="-667.8" rx="359.83" ry="130.22" x="-172" y="763"></ellipse>
<rect width="505" height="60" x="7" y="5" fill="#1d71b8" stroke="transparent" points="178.63,-697.8 178.63,-757.8 683.63,-757.8 683.63,-697.8 178.63,-697.8"></rect>
<rect width="505" height="60" x="7" y="5" fill="none" stroke="#29235c" points="178.63,-697.8 178.63,-757.8 683.63,-757.8 683.63,-697.8 178.63,-697.8"></rect>
<text text-anchor="start" x="17" y="44" font-family="Helvetica,sans-Serif" font-weight="bold" font-size="32.00" fill="#ffffff">       email_messages_to_files       </text>
<rect width="505" height="60" x="7" y="65" fill="#e7e2dd" stroke="transparent" points="178.63,-637.8 178.63,-697.8 683.63,-697.8 683.63,-637.8 178.63,-637.8"></rect>
<rect width="505" height="60" x="7" y="65" fill="none" stroke="#29235c" points="178.63,-637.8 178.63,-697.8 683.63,-697.8 683.63,-637.8 178.63,-637.8"></rect>
<text text-anchor="start" x="18" y="104" font-family="Helvetica,sans-Serif" font-weight="bold" font-size="32.00" fill="#29235c">email_messages_id</text>
<text text-anchor="start" x="300" y="104" font-family="Helvetica,sans-Serif" font-size="32.00" fill="#29235c">    </text>
<text text-anchor="start" x="364" y="104" font-family="Helvetica,sans-Serif" font-style="italic" font-size="32.00" fill="#29235c">integer</text>
<text text-anchor="start" x="461" y="104" font-family="Helvetica,sans-Serif" font-size="32.00" fill="#29235c"> </text>
<text text-anchor="start" x="470" y="104" font-family="Helvetica,sans-Serif" font-weight="bold" font-size="32.00" fill="#29235c">(!)</text>
<rect width="505" height="60" x="7" y="125" fill="#e7e2dd" stroke="transparent" points="178.63,-577.8 178.63,-637.8 683.63,-637.8 683.63,-577.8 178.63,-577.8"></rect>
<rect width="505" height="60" x="7" y="125" fill="none" stroke="#29235c" points="178.63,-577.8 178.63,-637.8 683.63,-637.8 683.63,-577.8 178.63,-577.8"></rect>
<text text-anchor="start" x="18" y="164" font-family="Helvetica,sans-Serif" font-weight="bold" font-size="32.00" fill="#29235c">file_id</text>
<text text-anchor="start" x="101" y="164" font-family="Helvetica,sans-Serif" font-size="32.00" fill="#29235c">    </text>
<text text-anchor="start" x="364" y="164" font-family="Helvetica,sans-Serif" font-style="italic" font-size="32.00" fill="#29235c">integer</text>
<text text-anchor="start" x="461" y="164" font-family="Helvetica,sans-Serif" font-size="32.00" fill="#29235c"> </text>
<text text-anchor="start" x="470" y="164" font-family="Helvetica,sans-Serif" font-weight="bold" font-size="32.00" fill="#29235c">(!)</text>
<rect width="507" height="182" x="5" y="4" fill="none" stroke="#29235c" stroke-width="2" points="177.13,-576.8 177.13,-758.8 684.13,-758.8 684.13,-576.8 177.13,-576.8"></rect>
</g></svg>