<svg xmlns="http://www.w3.org/2000/svg" version="1.1" xmlns:xlink="http://www.w3.org/1999/xlink" width="275.5" height="94.74364008171561"><g id="SvgjsG1013" class="node" x="-155" y="1599" transform="scale(0.5)">
<title x="-155" y="1599">orders_to_email_messages</title>
<ellipse fill="none" stroke="black" stroke-width="0" cx="430.63" cy="-1503.8" rx="383.92" ry="130.22" x="-155" y="1599"></ellipse>
<rect width="539" height="60" x="7" y="5" fill="#1d71b8" stroke="transparent" points="161.63,-1533.8 161.63,-1593.8 700.63,-1593.8 700.63,-1533.8 161.63,-1533.8"></rect>
<rect width="539" height="60" x="7" y="5" fill="none" stroke="#29235c" points="161.63,-1533.8 161.63,-1593.8 700.63,-1593.8 700.63,-1533.8 161.63,-1533.8"></rect>
<text text-anchor="start" x="17" y="44" font-family="Helvetica,sans-Serif" font-weight="bold" font-size="32.00" fill="#ffffff">       orders_to_email_messages       </text>
<rect width="539" height="60" x="7" y="65" fill="#e7e2dd" stroke="transparent" points="161.63,-1473.8 161.63,-1533.8 700.63,-1533.8 700.63,-1473.8 161.63,-1473.8"></rect>
<rect width="539" height="60" x="7" y="65" fill="none" stroke="#29235c" points="161.63,-1473.8 161.63,-1533.8 700.63,-1533.8 700.63,-1473.8 161.63,-1473.8"></rect>
<text text-anchor="start" x="18" y="104" font-family="Helvetica,sans-Serif" font-weight="bold" font-size="32.00" fill="#29235c">order_id</text>
<text text-anchor="start" x="135" y="104" font-family="Helvetica,sans-Serif" font-size="32.00" fill="#29235c">    </text>
<text text-anchor="start" x="398" y="104" font-family="Helvetica,sans-Serif" font-style="italic" font-size="32.00" fill="#29235c">integer</text>
<text text-anchor="start" x="495" y="104" font-family="Helvetica,sans-Serif" font-size="32.00" fill="#29235c"> </text>
<text text-anchor="start" x="504" y="104" font-family="Helvetica,sans-Serif" font-weight="bold" font-size="32.00" fill="#29235c">(!)</text>
<rect width="539" height="60" x="7" y="125" fill="#e7e2dd" stroke="transparent" points="161.63,-1413.8 161.63,-1473.8 700.63,-1473.8 700.63,-1413.8 161.63,-1413.8"></rect>
<rect width="539" height="60" x="7" y="125" fill="none" stroke="#29235c" points="161.63,-1413.8 161.63,-1473.8 700.63,-1473.8 700.63,-1413.8 161.63,-1413.8"></rect>
<text text-anchor="start" x="18" y="164" font-family="Helvetica,sans-Serif" font-weight="bold" font-size="32.00" fill="#29235c">email_message_id</text>
<text text-anchor="start" x="284" y="164" font-family="Helvetica,sans-Serif" font-size="32.00" fill="#29235c">    </text>
<text text-anchor="start" x="398" y="164" font-family="Helvetica,sans-Serif" font-style="italic" font-size="32.00" fill="#29235c">integer</text>
<text text-anchor="start" x="495" y="164" font-family="Helvetica,sans-Serif" font-size="32.00" fill="#29235c"> </text>
<text text-anchor="start" x="504" y="164" font-family="Helvetica,sans-Serif" font-weight="bold" font-size="32.00" fill="#29235c">(!)</text>
<rect width="541" height="182" x="5" y="4" fill="none" stroke="#29235c" stroke-width="2" points="160.13,-1412.8 160.13,-1594.8 701.13,-1594.8 701.13,-1412.8 160.13,-1412.8"></rect>
</g></svg>