<svg xmlns="http://www.w3.org/2000/svg" version="1.1" xmlns:xlink="http://www.w3.org/1999/xlink" width="230" height="276.59214874698563"><g id="SvgjsG1019" class="node" x="-201" y="4629" transform="scale(0.5)">
<title x="-201" y="4629">spreadsheets</title>
<ellipse fill="none" stroke="black" stroke-width="0" cx="430.63" cy="-4352.8" rx="319.72" ry="384.83" x="-201" y="4629"></ellipse>
<rect width="448" height="60" x="6" y="7" fill="#1d71b8" stroke="transparent" points="206.63,-4562.8 206.63,-4622.8 654.63,-4622.8 654.63,-4562.8 206.63,-4562.8"></rect>
<rect width="448" height="60" x="6" y="7" fill="none" stroke="#29235c" points="206.63,-4562.8 206.63,-4622.8 654.63,-4622.8 654.63,-4562.8 206.63,-4562.8"></rect>
<text text-anchor="start" x="72" y="45" font-family="Helvetica,sans-Serif" font-weight="bold" font-size="32.00" fill="#ffffff">       spreadsheets       </text>
<rect width="448" height="60" x="6" y="67" fill="#e7e2dd" stroke="transparent" points="206.63,-4502.8 206.63,-4562.8 654.63,-4562.8 654.63,-4502.8 206.63,-4502.8"></rect>
<rect width="448" height="60" x="6" y="67" fill="none" stroke="#29235c" points="206.63,-4502.8 206.63,-4562.8 654.63,-4562.8 654.63,-4502.8 206.63,-4502.8"></rect>
<text text-anchor="start" x="17" y="105" font-family="Helvetica,sans-Serif" font-weight="bold" font-size="32.00" fill="#29235c">id</text>
<text text-anchor="start" x="42" y="105" font-family="Helvetica,sans-Serif" font-size="32.00" fill="#29235c">    </text>
<text text-anchor="start" x="327" y="105" font-family="Helvetica,sans-Serif" font-style="italic" font-size="32.00" fill="#29235c">serial</text>
<text text-anchor="start" x="404" y="105" font-family="Helvetica,sans-Serif" font-size="32.00" fill="#29235c"> </text>
<text text-anchor="start" x="413" y="105" font-family="Helvetica,sans-Serif" font-weight="bold" font-size="32.00" fill="#29235c">(!)</text>
<rect width="448" height="60" x="6" y="127" fill="#e7e2dd" stroke="transparent" points="206.63,-4442.8 206.63,-4502.8 654.63,-4502.8 654.63,-4442.8 206.63,-4442.8"></rect>
<rect width="448" height="60" x="6" y="127" fill="none" stroke="#29235c" points="206.63,-4442.8 206.63,-4502.8 654.63,-4502.8 654.63,-4442.8 206.63,-4442.8"></rect>
<text text-anchor="start" x="17" y="166" font-family="Helvetica,sans-Serif" font-size="32.00" fill="#29235c">name    </text>
<text text-anchor="start" x="262" y="165" font-family="Helvetica,sans-Serif" font-style="italic" font-size="32.00" fill="#29235c">varchar(255)</text>
<rect width="448" height="60" x="6" y="187" fill="#e7e2dd" stroke="transparent" points="206.63,-4382.8 206.63,-4442.8 654.63,-4442.8 654.63,-4382.8 206.63,-4382.8"></rect>
<rect width="448" height="60" x="6" y="187" fill="none" stroke="#29235c" points="206.63,-4382.8 206.63,-4442.8 654.63,-4442.8 654.63,-4382.8 206.63,-4382.8"></rect>
<text text-anchor="start" x="17" y="226" font-family="Helvetica,sans-Serif" font-size="32.00" fill="#29235c">data    </text>
<text text-anchor="start" x="384" y="225" font-family="Helvetica,sans-Serif" font-style="italic" font-size="32.00" fill="#29235c">json</text>
<rect width="448" height="60" x="6" y="247" fill="#e7e2dd" stroke="transparent" points="206.63,-4322.8 206.63,-4382.8 654.63,-4382.8 654.63,-4322.8 206.63,-4322.8"></rect>
<rect width="448" height="60" x="6" y="247" fill="none" stroke="#29235c" points="206.63,-4322.8 206.63,-4382.8 654.63,-4382.8 654.63,-4322.8 206.63,-4322.8"></rect>
<text text-anchor="start" x="17" y="286" font-family="Helvetica,sans-Serif" font-size="32.00" fill="#29235c">order_id    </text>
<text text-anchor="start" x="345" y="285" font-family="Helvetica,sans-Serif" font-style="italic" font-size="32.00" fill="#29235c">integer</text>
<rect width="448" height="60" x="6" y="307" fill="#e7e2dd" stroke="transparent" points="206.63,-4262.8 206.63,-4322.8 654.63,-4322.8 654.63,-4262.8 206.63,-4262.8"></rect>
<rect width="448" height="60" x="6" y="307" fill="none" stroke="#29235c" points="206.63,-4262.8 206.63,-4322.8 654.63,-4322.8 654.63,-4262.8 206.63,-4262.8"></rect>
<text text-anchor="start" x="17" y="346" font-family="Helvetica,sans-Serif" font-size="32.00" fill="#29235c">updated_at    </text>
<text text-anchor="start" x="256" y="345" font-family="Helvetica,sans-Serif" font-style="italic" font-size="32.00" fill="#29235c">timestamp</text>
<text text-anchor="start" x="404" y="345" font-family="Helvetica,sans-Serif" font-size="32.00" fill="#29235c"> </text>
<text text-anchor="start" x="413" y="345" font-family="Helvetica,sans-Serif" font-weight="bold" font-size="32.00" fill="#29235c">(!)</text>
<rect width="448" height="60" x="6" y="367" fill="#e7e2dd" stroke="transparent" points="206.63,-4202.8 206.63,-4262.8 654.63,-4262.8 654.63,-4202.8 206.63,-4202.8"></rect>
<rect width="448" height="60" x="6" y="367" fill="none" stroke="#29235c" points="206.63,-4202.8 206.63,-4262.8 654.63,-4262.8 654.63,-4202.8 206.63,-4202.8"></rect>
<text text-anchor="start" x="17" y="406" font-family="Helvetica,sans-Serif" font-size="32.00" fill="#29235c">created_at    </text>
<text text-anchor="start" x="256" y="405" font-family="Helvetica,sans-Serif" font-style="italic" font-size="32.00" fill="#29235c">timestamp</text>
<text text-anchor="start" x="404" y="405" font-family="Helvetica,sans-Serif" font-size="32.00" fill="#29235c"> </text>
<text text-anchor="start" x="413" y="405" font-family="Helvetica,sans-Serif" font-weight="bold" font-size="32.00" fill="#29235c">(!)</text>
<rect width="448" height="60" x="6" y="427" fill="#e7e2dd" stroke="transparent" points="206.63,-4142.8 206.63,-4202.8 654.63,-4202.8 654.63,-4142.8 206.63,-4142.8"></rect>
<rect width="448" height="60" x="6" y="427" fill="none" stroke="#29235c" points="206.63,-4142.8 206.63,-4202.8 654.63,-4202.8 654.63,-4142.8 206.63,-4142.8"></rect>
<text text-anchor="start" x="17" y="466" font-family="Helvetica,sans-Serif" font-size="32.00" fill="#29235c">created_by_id    </text>
<text text-anchor="start" x="262" y="465" font-family="Helvetica,sans-Serif" font-style="italic" font-size="32.00" fill="#29235c">varchar(255)</text>
<rect width="448" height="60" x="6" y="487" fill="#e7e2dd" stroke="transparent" points="206.63,-4082.8 206.63,-4142.8 654.63,-4142.8 654.63,-4082.8 206.63,-4082.8"></rect>
<rect width="448" height="60" x="6" y="487" fill="none" stroke="#29235c" points="206.63,-4082.8 206.63,-4142.8 654.63,-4142.8 654.63,-4082.8 206.63,-4082.8"></rect>
<text text-anchor="start" x="17" y="526" font-family="Helvetica,sans-Serif" font-size="32.00" fill="#29235c">updated_by_id    </text>
<text text-anchor="start" x="262" y="525" font-family="Helvetica,sans-Serif" font-style="italic" font-size="32.00" fill="#29235c">varchar(255)</text>
<rect width="450" height="542" x="5" y="6" fill="none" stroke="#29235c" stroke-width="2" points="205.63,-4081.8 205.63,-4623.8 655.63,-4623.8 655.63,-4081.8 205.63,-4081.8"></rect>
</g></svg>