<svg xmlns="http://www.w3.org/2000/svg" version="1.1" xmlns:xlink="http://www.w3.org/1999/xlink" width="229.99999999999994" height="397.47320250897627"><g id="SvgjsG1006" class="node" x="-1008" y="5881" transform="scale(0.5)">
<title x="-1008" y="5881">user</title>
<ellipse fill="none" stroke="black" stroke-width="0" cx="1238.08" cy="-5483.8" rx="319.72" ry="554.24" x="-1008" y="5881"></ellipse>
<rect width="447.9999999999999" height="60" x="6" y="7" fill="#1d71b8" stroke="transparent" points="1014.08,-5813.8 1014.08,-5873.8 1462.08,-5873.8 1462.08,-5813.8 1014.08,-5813.8"></rect>
<rect width="447.9999999999999" height="60" x="6" y="7" fill="none" stroke="#29235c" points="1014.08,-5813.8 1014.08,-5873.8 1462.08,-5873.8 1462.08,-5813.8 1014.08,-5813.8"></rect>
<text text-anchor="start" x="137" y="46" font-family="Helvetica,sans-Serif" font-weight="bold" font-size="32.00" fill="#ffffff">       user       </text>
<rect width="447.9999999999999" height="60" x="6" y="67" fill="#e7e2dd" stroke="transparent" points="1014.08,-5753.8 1014.08,-5813.8 1462.08,-5813.8 1462.08,-5753.8 1014.08,-5753.8"></rect>
<rect width="447.9999999999999" height="60" x="6" y="67" fill="none" stroke="#29235c" points="1014.08,-5753.8 1014.08,-5813.8 1462.08,-5813.8 1462.08,-5753.8 1014.08,-5753.8"></rect>
<text text-anchor="start" x="17" y="106" font-family="Helvetica,sans-Serif" font-weight="bold" font-size="32.00" fill="#29235c">id</text>
<text text-anchor="start" x="42" y="106" font-family="Helvetica,sans-Serif" font-size="32.00" fill="#29235c">    </text>
<text text-anchor="start" x="352" y="106" font-family="Helvetica,sans-Serif" font-style="italic" font-size="32.00" fill="#29235c">text</text>
<text text-anchor="start" x="404" y="106" font-family="Helvetica,sans-Serif" font-size="32.00" fill="#29235c"> </text>
<text text-anchor="start" x="413" y="106" font-family="Helvetica,sans-Serif" font-weight="bold" font-size="32.00" fill="#29235c">(!)</text>
<rect width="447.9999999999999" height="60" x="6" y="127" fill="#e7e2dd" stroke="transparent" points="1014.08,-5693.8 1014.08,-5753.8 1462.08,-5753.8 1462.08,-5693.8 1014.08,-5693.8"></rect>
<rect width="447.9999999999999" height="60" x="6" y="127" fill="none" stroke="#29235c" points="1014.08,-5693.8 1014.08,-5753.8 1462.08,-5753.8 1462.08,-5693.8 1014.08,-5693.8"></rect>
<text text-anchor="start" x="17" y="167" font-family="Helvetica,sans-Serif" font-size="32.00" fill="#29235c">name    </text>
<text text-anchor="start" x="262" y="166" font-family="Helvetica,sans-Serif" font-style="italic" font-size="32.00" fill="#29235c">varchar(255)</text>
<rect width="447.9999999999999" height="60" x="6" y="187" fill="#e7e2dd" stroke="transparent" points="1014.08,-5633.8 1014.08,-5693.8 1462.08,-5693.8 1462.08,-5633.8 1014.08,-5633.8"></rect>
<rect width="447.9999999999999" height="60" x="6" y="187" fill="none" stroke="#29235c" points="1014.08,-5633.8 1014.08,-5693.8 1462.08,-5693.8 1462.08,-5633.8 1014.08,-5633.8"></rect>
<text text-anchor="start" x="17" y="227" font-family="Helvetica,sans-Serif" font-size="32.00" fill="#29235c">email    </text>
<text text-anchor="start" x="223" y="226" font-family="Helvetica,sans-Serif" font-style="italic" font-size="32.00" fill="#29235c">varchar(255)</text>
<text text-anchor="start" x="404" y="226" font-family="Helvetica,sans-Serif" font-size="32.00" fill="#29235c"> </text>
<text text-anchor="start" x="413" y="226" font-family="Helvetica,sans-Serif" font-weight="bold" font-size="32.00" fill="#29235c">(!)</text>
<rect width="447.9999999999999" height="60" x="6" y="247" fill="#e7e2dd" stroke="transparent" points="1014.08,-5573.8 1014.08,-5633.8 1462.08,-5633.8 1462.08,-5573.8 1014.08,-5573.8"></rect>
<rect width="447.9999999999999" height="60" x="6" y="247" fill="none" stroke="#29235c" points="1014.08,-5573.8 1014.08,-5633.8 1462.08,-5633.8 1462.08,-5573.8 1014.08,-5573.8"></rect>
<text text-anchor="start" x="17" y="287" font-family="Helvetica,sans-Serif" font-size="32.00" fill="#29235c">emailVerified    </text>
<text text-anchor="start" x="295" y="286" font-family="Helvetica,sans-Serif" font-style="italic" font-size="32.00" fill="#29235c">timestamp</text>
<rect width="447.9999999999999" height="60" x="6" y="307" fill="#e7e2dd" stroke="transparent" points="1014.08,-5513.8 1014.08,-5573.8 1462.08,-5573.8 1462.08,-5513.8 1014.08,-5513.8"></rect>
<rect width="447.9999999999999" height="60" x="6" y="307" fill="none" stroke="#29235c" points="1014.08,-5513.8 1014.08,-5573.8 1462.08,-5573.8 1462.08,-5513.8 1014.08,-5513.8"></rect>
<text text-anchor="start" x="17" y="347" font-family="Helvetica,sans-Serif" font-size="32.00" fill="#29235c">image    </text>
<text text-anchor="start" x="262" y="346" font-family="Helvetica,sans-Serif" font-style="italic" font-size="32.00" fill="#29235c">varchar(255)</text>
<rect width="447.9999999999999" height="60" x="6" y="367" fill="#e7e2dd" stroke="transparent" points="1014.08,-5453.8 1014.08,-5513.8 1462.08,-5513.8 1462.08,-5453.8 1014.08,-5453.8"></rect>
<rect width="447.9999999999999" height="60" x="6" y="367" fill="none" stroke="#29235c" points="1014.08,-5453.8 1014.08,-5513.8 1462.08,-5513.8 1462.08,-5453.8 1014.08,-5453.8"></rect>
<text text-anchor="start" x="17" y="407" font-family="Helvetica,sans-Serif" font-size="32.00" fill="#29235c">role    </text>
<text text-anchor="start" x="351" y="406" font-family="Helvetica,sans-Serif" font-style="italic" font-size="32.00" fill="#29235c">role</text>
<text text-anchor="start" x="404" y="406" font-family="Helvetica,sans-Serif" font-size="32.00" fill="#29235c"> </text>
<text text-anchor="start" x="413" y="406" font-family="Helvetica,sans-Serif" font-weight="bold" font-size="32.00" fill="#29235c">(!)</text>
<rect width="447.9999999999999" height="60" x="6" y="427" fill="#e7e2dd" stroke="transparent" points="1014.08,-5393.8 1014.08,-5453.8 1462.08,-5453.8 1462.08,-5393.8 1014.08,-5393.8"></rect>
<rect width="447.9999999999999" height="60" x="6" y="427" fill="none" stroke="#29235c" points="1014.08,-5393.8 1014.08,-5453.8 1462.08,-5453.8 1462.08,-5393.8 1014.08,-5393.8"></rect>
<text text-anchor="start" x="17" y="467" font-family="Helvetica,sans-Serif" font-size="32.00" fill="#29235c">tokenId    </text>
<text text-anchor="start" x="391" y="466" font-family="Helvetica,sans-Serif" font-style="italic" font-size="32.00" fill="#29235c">text</text>
<rect width="447.9999999999999" height="60" x="6" y="487" fill="#e7e2dd" stroke="transparent" points="1014.08,-5333.8 1014.08,-5393.8 1462.08,-5393.8 1462.08,-5333.8 1014.08,-5333.8"></rect>
<rect width="447.9999999999999" height="60" x="6" y="487" fill="none" stroke="#29235c" points="1014.08,-5333.8 1014.08,-5393.8 1462.08,-5393.8 1462.08,-5333.8 1014.08,-5333.8"></rect>
<text text-anchor="start" x="17" y="527" font-family="Helvetica,sans-Serif" font-size="32.00" fill="#29235c">wsTokenId    </text>
<text text-anchor="start" x="391" y="526" font-family="Helvetica,sans-Serif" font-style="italic" font-size="32.00" fill="#29235c">text</text>
<rect width="447.9999999999999" height="60" x="6" y="547" fill="#e7e2dd" stroke="transparent" points="1014.08,-5273.8 1014.08,-5333.8 1462.08,-5333.8 1462.08,-5273.8 1014.08,-5273.8"></rect>
<rect width="447.9999999999999" height="60" x="6" y="547" fill="none" stroke="#29235c" points="1014.08,-5273.8 1014.08,-5333.8 1462.08,-5333.8 1462.08,-5273.8 1014.08,-5273.8"></rect>
<text text-anchor="start" x="17" y="587" font-family="Helvetica,sans-Serif" font-size="32.00" fill="#29235c">updated_at    </text>
<text text-anchor="start" x="256" y="586" font-family="Helvetica,sans-Serif" font-style="italic" font-size="32.00" fill="#29235c">timestamp</text>
<text text-anchor="start" x="404" y="586" font-family="Helvetica,sans-Serif" font-size="32.00" fill="#29235c"> </text>
<text text-anchor="start" x="413" y="586" font-family="Helvetica,sans-Serif" font-weight="bold" font-size="32.00" fill="#29235c">(!)</text>
<rect width="447.9999999999999" height="60" x="6" y="607" fill="#e7e2dd" stroke="transparent" points="1014.08,-5213.8 1014.08,-5273.8 1462.08,-5273.8 1462.08,-5213.8 1014.08,-5213.8"></rect>
<rect width="447.9999999999999" height="60" x="6" y="607" fill="none" stroke="#29235c" points="1014.08,-5213.8 1014.08,-5273.8 1462.08,-5273.8 1462.08,-5213.8 1014.08,-5213.8"></rect>
<text text-anchor="start" x="17" y="647" font-family="Helvetica,sans-Serif" font-size="32.00" fill="#29235c">created_at    </text>
<text text-anchor="start" x="256" y="646" font-family="Helvetica,sans-Serif" font-style="italic" font-size="32.00" fill="#29235c">timestamp</text>
<text text-anchor="start" x="404" y="646" font-family="Helvetica,sans-Serif" font-size="32.00" fill="#29235c"> </text>
<text text-anchor="start" x="413" y="646" font-family="Helvetica,sans-Serif" font-weight="bold" font-size="32.00" fill="#29235c">(!)</text>
<rect width="447.9999999999999" height="60" x="6" y="667" fill="#e7e2dd" stroke="transparent" points="1014.08,-5153.8 1014.08,-5213.8 1462.08,-5213.8 1462.08,-5153.8 1014.08,-5153.8"></rect>
<rect width="447.9999999999999" height="60" x="6" y="667" fill="none" stroke="#29235c" points="1014.08,-5153.8 1014.08,-5213.8 1462.08,-5213.8 1462.08,-5153.8 1014.08,-5153.8"></rect>
<text text-anchor="start" x="17" y="707" font-family="Helvetica,sans-Serif" font-size="32.00" fill="#29235c">created_by_id    </text>
<text text-anchor="start" x="262" y="706" font-family="Helvetica,sans-Serif" font-style="italic" font-size="32.00" fill="#29235c">varchar(255)</text>
<rect width="447.9999999999999" height="60" x="6" y="727" fill="#e7e2dd" stroke="transparent" points="1014.08,-5093.8 1014.08,-5153.8 1462.08,-5153.8 1462.08,-5093.8 1014.08,-5093.8"></rect>
<rect width="447.9999999999999" height="60" x="6" y="727" fill="none" stroke="#29235c" points="1014.08,-5093.8 1014.08,-5153.8 1462.08,-5153.8 1462.08,-5093.8 1014.08,-5093.8"></rect>
<text text-anchor="start" x="17" y="767" font-family="Helvetica,sans-Serif" font-size="32.00" fill="#29235c">updated_by_id    </text>
<text text-anchor="start" x="262" y="766" font-family="Helvetica,sans-Serif" font-style="italic" font-size="32.00" fill="#29235c">varchar(255)</text>
<rect width="449.9999999999999" height="782" x="5" y="6" fill="none" stroke="#29235c" stroke-width="2" points="1013.08,-5092.8 1013.08,-5874.8 1463.08,-5874.8 1463.08,-5092.8 1013.08,-5092.8"></rect>
</g></svg>